<svg xmlns="http://www.w3.org/2000/svg" xmlns:xlink="http://www.w3.org/1999/xlink" viewBox="0 0 100 100"><defs><style>.cls-1,.cls-2{stroke:#000;stroke-miterlimit:10;}.cls-1{fill:url(#linear-gradient);}.cls-2{stroke-width:2px;fill:url(#linear-gradient-2);}</style><linearGradient id="linear-gradient" x1="175.34" y1="-261.58" x2="175.34" y2="-304.16" gradientTransform="matrix(2, 0, 0, -2, -301, -517)" gradientUnits="userSpaceOnUse"><stop offset="0" stop-color="#1a6dff"/><stop offset="1" stop-color="#c822ff"/></linearGradient><linearGradient id="linear-gradient-2" x1="175.34" y1="-272.71" x2="175.34" y2="-293.26" gradientTransform="matrix(2, 0, 0, -2, -301, -517)" gradientUnits="userSpaceOnUse"><stop offset="0" stop-color="#6dc7ff"/><stop offset="1" stop-color="#e6abff"/></linearGradient></defs><title>Adobe Creative Cloud</title><g id="Layer_25" data-name="Layer 25"><path class="cls-1" d="M83.3,91.93H16.06a9.35,9.35,0,0,1-9.34-9.34V15.34A9.35,9.35,0,0,1,16.06,6H83.3a9.35,9.35,0,0,1,9.34,9.34V82.59A9.35,9.35,0,0,1,83.3,91.93ZM16.06,9.74a5.61,5.61,0,0,0-5.61,5.6V82.59a5.61,5.61,0,0,0,5.61,5.6H83.3a5.61,5.61,0,0,0,5.61-5.6V15.34a5.61,5.61,0,0,0-5.61-5.6Z"/><path class="cls-2" d="M57.15,28.42a20.48,20.48,0,0,0-14.42,5.92A17.41,17.41,0,0,0,39.4,34a17.75,17.75,0,0,0,0,35.49H57.15a20.55,20.55,0,1,0,0-41.09ZM39.4,65.78a14,14,0,0,1,0-28,12.13,12.13,0,0,1,6,1.64,17.82,17.82,0,0,1,2.73,1.83,45.81,45.81,0,0,1,5,4.76l1.61,1.65a1.87,1.87,0,1,1-2.65,2.65c-.54-.54-1.08-1.12-1.66-1.72-3.18-3.32-6.77-7.08-11-7.08A10.28,10.28,0,0,0,39.4,62a9.59,9.59,0,0,0,1.78-.17,35.23,35.23,0,0,0,3.31,2.95A13.74,13.74,0,0,1,39.4,65.78Zm17.75,0A15.21,15.21,0,0,1,50,64a29.93,29.93,0,0,1-7.72-6.33l-2-2.13c-1-1.14-2.09-2.3-3.18-3.36a1.88,1.88,0,1,1,2.66-2.65C40.9,50.63,42,51.8,43.07,53c4.26,4.65,8.27,9,14.08,9a13.08,13.08,0,1,0,0-26.15A12.83,12.83,0,0,0,50.05,38a21.86,21.86,0,0,0-3.4-2.17,16.81,16.81,0,1,1,10.5,30Z"/></g></svg>