<svg xmlns="http://www.w3.org/2000/svg" viewBox="0 0 100 100"><defs><style>.cls-1{fill:#373837;}.cls-2{fill:#010101;}.cls-3{fill:#71c598;}.cls-4{fill:#d6e5e5;}.cls-5{fill:#4b7bb2;}</style></defs><title>Android Studio</title><g id="Layer_17" data-name="Layer 17"><path class="cls-1" d="M20.62,33.7c4.65,0,8.9,0,13.36,0V20.22c-3.08.15-8-.37-11.13-.37s-5.15.1-7.18,1.24-3.21,2.22-3.21,5.68C12.46,29.4,15.18,33.7,20.62,33.7Z"/><path class="cls-2" d="M20.62,34.69c-5.89,0-9.15-4.68-9.15-7.92,0-3.75,1.31-5.19,3.72-6.55s4.41-1.36,7.66-1.36c1.33,0,2.95.09,4.68.19a63.44,63.44,0,0,0,6.39.18l1-.05V34.67H34c-2.49,0-4.92,0-7.4,0Zm2.23-13.85c-3.2,0-4.91.11-6.69,1.11s-2.71,1.84-2.71,4.82c0,2,2.17,5.94,7.17,5.94h5.95l6.42,0V21.24c-1.63,0-3.65-.1-5.58-.21C25.75,20.93,24.13,20.84,22.85,20.84Z"/><path class="cls-3" d="M38.11,33.7c12.53.13,25.13-.35,37.66-.25V33c0-3.71-3.11-9.31-6-11.76-2.36-2-2.89-3.33-6.35-5.06.74-2,.7-2.34,2.22-3.71.71-.63,2.23-2.27,2.23-3.21,0-1.24-2-1.49-2.72-1.49-1,0-5.06,3.51-5.94,6.18a18.07,18.07,0,0,0-7.67-2,17,17,0,0,0-5.11.76c-1.92.61-3.61,1.91-5,.47a6.5,6.5,0,0,1-1.81-3.25A2.11,2.11,0,0,0,37.44,8c-1.28-.09-3.41.71-3.22,2a9.23,9.23,0,0,0,2.23,3.95c.81.88.92,2.1,1.73,3-3.53,2.49-5.48,4-7.77,7.65a24.53,24.53,0,0,0-3.1,9.15C30.86,33.67,34.36,33.66,38.11,33.7Z"/><path class="cls-2" d="M42.57,34.71l-4.47,0h0c-3.75,0-7.24,0-10.78,0a.9.9,0,0,1-.76-.34,1,1,0,0,1-.22-.8A25,25,0,0,1,29.57,24a23.09,23.09,0,0,1,7.24-7.37c-.16-.29-.28-.57-.4-.84a4.22,4.22,0,0,0-.69-1.21,10.24,10.24,0,0,1-2.47-4.49,2.13,2.13,0,0,1,.59-1.79A5,5,0,0,1,37.5,7a3.13,3.13,0,0,1,3.06,2.76,5.47,5.47,0,0,0,1.54,2.73c.57.58,1.18.4,2.65-.2.44-.18.9-.37,1.37-.52A17.91,17.91,0,0,1,51.54,11a18.35,18.35,0,0,1,7.17,1.64c1.44-2.69,5-5.85,6.43-5.85,1.84,0,3.71.77,3.71,2.48s-2.3,3.71-2.56,3.95a4.57,4.57,0,0,0-1.66,2.5,15.66,15.66,0,0,1,4,3.1c.52.52,1.06,1.07,1.78,1.67,3,2.54,6.37,8.43,6.37,12.52v.49a1,1,0,0,1-.29.7.82.82,0,0,1-.71.29c-6.12,0-12.37,0-18.42.13C52.49,34.64,47.52,34.71,42.57,34.71Zm-4.45-2c6.39.07,12.89,0,19.19-.12,5.72-.08,11.63-.17,17.45-.13C74.5,29,71.61,24.06,69.12,22c-.77-.65-1.36-1.23-1.91-1.78A13.78,13.78,0,0,0,63,17a1,1,0,0,1-.48-1.23l.27-.74A6.35,6.35,0,0,1,65,11.69a6.74,6.74,0,0,0,1.9-2.48,2.65,2.65,0,0,0-1.73-.49c-.7.18-4.23,3.15-5,5.5a1,1,0,0,1-.56.61,1,1,0,0,1-.82,0,16.89,16.89,0,0,0-7.23-1.87h0a15.89,15.89,0,0,0-4.77.72c-.42.13-.82.3-1.22.46-1.45.59-3.26,1.33-4.81-.25a7.31,7.31,0,0,1-2.08-3.77A1.17,1.17,0,0,0,37.37,9a3.09,3.09,0,0,0-2.08.69,7,7,0,0,0,1.88,3.59,6.07,6.07,0,0,1,1,1.76,4.13,4.13,0,0,0,.69,1.21,1,1,0,0,1,.25.77,1,1,0,0,1-.41.71c-3.4,2.39-5.27,3.8-7.51,7.37a21.82,21.82,0,0,0-2.75,7.63c3.15,0,6.29,0,9.63,0Z"/><path class="cls-4" d="M58.19,26.35a2.06,2.06,0,0,0,2,1.41,4.36,4.36,0,0,0,2.45-.88,2.78,2.78,0,0,0,1.18-1.34,3,3,0,0,0-.66-2.47,4.1,4.1,0,0,0-2-1.23c-.57,0-2.45.24-3,1.23A5.64,5.64,0,0,0,58.19,26.35Z"/><path class="cls-2" d="M60.24,28.75h-.06a3,3,0,0,1-3-2.18h0c-.15-.6-.56-2.67.13-4,.79-1.49,3.15-1.8,3.92-1.75a5.12,5.12,0,0,1,2.59,1.52,4,4,0,0,1,.9,3.46,3.54,3.54,0,0,1-1.57,1.86A5.25,5.25,0,0,1,60.24,28.75Zm.81-5.93c-.53,0-1.73.31-1.94.71a4.79,4.79,0,0,0,0,2.59h0a1.09,1.09,0,0,0,1.06.65h0a3.43,3.43,0,0,0,1.86-.72,1.84,1.84,0,0,0,.78-.81,2.12,2.12,0,0,0-.42-1.48,3.75,3.75,0,0,0-1.33-.94Z"/><path class="cls-4" d="M38.7,22.82A2.15,2.15,0,0,0,38.19,24a2.83,2.83,0,0,0,.58,1.89c.89,1.29,2,2.15,3.16,1.83s2.16-1.07,2.18-3.15a4.55,4.55,0,0,0-.24-1.24c-.3-.89-1.9-1.48-2.48-1.48A2.71,2.71,0,0,0,38.7,22.82Z"/><path class="cls-2" d="M41.45,28.75A4.55,4.55,0,0,1,38,26.44a3.81,3.81,0,0,1-.74-2.57,3,3,0,0,1,.73-1.68,3.48,3.48,0,0,1,3.18-1.36h.27c.92,0,3,.76,3.42,2.16a5.61,5.61,0,0,1,.29,1.56c0,2.18-1,3.55-2.9,4.09A2.76,2.76,0,0,1,41.45,28.75Zm-.72-5.95a1.43,1.43,0,0,0-1.26.65h0a1.22,1.22,0,0,0-.3.63,2,2,0,0,0,.41,1.23c.57.82,1.42,1.63,2.08,1.44.86-.25,1.44-.72,1.47-2.21a3.89,3.89,0,0,0-.2-.91,2.55,2.55,0,0,0-1.54-.81h-.66Z"/><path class="cls-5" d="M89.62,41.61a8.36,8.36,0,0,0-6.35-7.86c-2.2-.65-4.46-.28-6.76-.3-12.77-.13-25.63.38-38.4.25-6.07-.06-11.43,0-17.49,0-5.44,0-8.16-4.3-8.16-6.93-.05,4.64.4,10.76.52,15.4a45.92,45.92,0,0,0,.6,7.31c.42,2.27-.7,12.13-.39,14.78.24,2-.73,9.75-.73,12.47,0,3.46,1.13,4.57,2.08,5.65s7.67.74,9.3.78c15.8.37,28.69,0,44.51,0,2.79,0,10.59-.27,13.36,0C81.71,83.16,89.62,44.48,89.62,41.61Z"/><path class="cls-2" d="M38.87,84.31c-4.84,0-9.78,0-15.06-.16-.31,0-.82,0-1.44,0-4.81.12-7.6,0-8.58-1.14l-.13-.16c-1-1.1-2.19-2.47-2.19-6.14,0-1.21.18-3.32.37-5.54a58.22,58.22,0,0,0,.37-6.82A58,58,0,0,1,12.42,57a54.39,54.39,0,0,0,.19-7.37A48.34,48.34,0,0,1,12,42.2c0-1.74-.13-3.68-.23-5.67-.16-3.36-.32-6.84-.29-9.77a1,1,0,0,1,1-1h0a1,1,0,0,1,1,1c0,2,2.17,5.94,7.17,5.94h6c3.81,0,7.52,0,11.54,0,6.38.06,12.89,0,19.18-.12s12.83-.19,19.22-.13c.63,0,1.26,0,1.88,0a15.86,15.86,0,0,1,5.15.38,9.36,9.36,0,0,1,7.06,8.81c0,2.88-7.12,37.78-7.93,41.75a1,1,0,0,1-1.07.78c-1.93-.18-6.52-.1-9.87,0-1.38,0-2.59.05-3.39.05-5.39,0-10.43,0-15.37.08C48.22,84.28,43.59,84.31,38.87,84.31ZM23.63,82.17h.23c10.4.25,19.49.17,29.1.09,4.94-.05,10-.09,15.39-.09.79,0,2,0,3.35,0,3.13-.05,6.94-.12,9.21,0,3.17-15.51,7.72-38.51,7.72-40.5a7.5,7.5,0,0,0-.94-3.35A7.38,7.38,0,0,0,83,34.7a13.7,13.7,0,0,0-4.51-.3c-.66,0-1.32.05-2,0-6.39-.06-12.88,0-19.17.12s-12.83.19-19.23.13c-4,0-7.72,0-11.52,0l-6,0a9.32,9.32,0,0,1-7.09-3.07c.05,1.58.13,3.21.21,4.81.09,2,.18,4,.23,5.71a46.33,46.33,0,0,0,.58,7.16,49.71,49.71,0,0,1-.16,7.85,59.06,59.06,0,0,0-.22,7,52.76,52.76,0,0,1-.36,7.21c-.19,2.19-.36,4.25-.36,5.38,0,2.92.82,3.85,1.69,4.83l.14.16c.73.63,5.48.51,7,.47Z"/><path class="cls-1" d="M77.75,47.55c2,0,5.68.43,8.41-.74a4.53,4.53,0,0,0,2.3-2,9.15,9.15,0,0,0,1.16-3.2c0,6.43-.79,9.1-.9,13.53-.22,9.3-.44,18.65.82,27.87.39,2.87.89,6-.5,8.51C87.18,94.94,82.45,95,77.75,95c.75-5.21.49-9.89.28-15.28C77.6,69.09,78,55.22,77.75,47.55Z"/><path class="cls-2" d="M77.75,96a1,1,0,0,1-1-1.13,74.61,74.61,0,0,0,.31-14.13l0-1c-.24-6.05-.22-13.2-.2-19.52,0-4.82,0-9.38-.08-12.69a1,1,0,0,1,.28-.72c.45-.47,1.2-.3,2-.27,2,.07,4.68.17,6.69-.69a2.88,2.88,0,0,0,1.57-1.24,3.83,3.83,0,0,1,.39-.51,10,10,0,0,0,.9-2.56,1,1,0,0,1,1-1,1,1,0,0,1,1,1,70.24,70.24,0,0,1-.52,8.55c-.17,1.63-.34,3.18-.38,5-.22,9.11-.44,18.55.81,27.7l0,.32c.39,2.85.84,6.07-.66,8.81C87.71,96,82.19,96,77.75,96Zm1-47.46c.07,3.22.06,7.37,0,11.72,0,6.29,0,13.42.2,19.43l0,1A81.49,81.49,0,0,1,78.88,94c4.44-.05,7.9-.43,9.3-3,1.18-2.16.8-4.92.43-7.59l0-.32c-1.28-9.32-1.06-18.83-.84-28,0-1.92.22-3.5.4-5.17.12-1.1.24-2.22.33-3.5a5.37,5.37,0,0,1-1.91,1.26c-2.41,1-5.38.93-7.54.86Z"/><path class="cls-1" d="M67.93,89.16c-.81-1.36-1.45-3-2.3-4.76-3.81-8.11-3.21-9.65-7.91-17.56-.4-.68-1.73-2.49-1.73-2.49s2.75-2.14,3.46-4.21.84-6.79-.57-8.46c-1.1-1.3-.85-1.57-2.15-2.67A5.52,5.52,0,0,0,54,47.78V43.1c0-1.5-1.23-3.47-2.72-3.47a3.1,3.1,0,0,0-2.91,2.2,5.61,5.61,0,0,0-.31,1.27v4.43a8.94,8.94,0,0,0-5.93,7.91c0,3,.08,5.9,2.2,7.61.53.43,1.18.86,1.26,1.54a2.32,2.32,0,0,1-.38,1.26c-4.37,8.21-5,13.33-10.24,21a21.76,21.76,0,0,0-2.51,5.18,4.21,4.21,0,0,0,1.11,4.58,2.51,2.51,0,0,0,1.63.38h.62c.72,0,2.78-1.85,3-2.23,3.59-7.58,6.76-14.48,10.13-20.16a2.8,2.8,0,0,1,4.9.17c.65,1.28,1.14,2.46,1.3,2.71a9.57,9.57,0,0,1,.73,2.31c1.87,5.82,1.82,5.79,4.83,10.77.32.53,1.48,4.35,2,4.7.67.46.75,1.73,3.47,1.73,2.17,0,3.71-1,3.71-3S69.11,91.14,67.93,89.16Zm-13.6-29a5.29,5.29,0,0,1-5.55,1.16,4.3,4.3,0,0,1-2.59-4.76c.46-1.9,1.06-4.22,4-4.75a9.56,9.56,0,0,1,4.39.74,3.7,3.7,0,0,1,1.28,2.2A5.87,5.87,0,0,1,54.33,60.12Z"/><path class="cls-2" d="M66.13,98c-2.33,0-3.19-.85-3.81-1.65a2.39,2.39,0,0,0-.22-.26c-.5-.35-.84-1.12-1.73-3.59-.23-.65-.43-1.21-.54-1.42-2.93-4.85-3-5-4.79-10.55l-.13-.42a8.93,8.93,0,0,1-.23-.89,3.57,3.57,0,0,0-.38-1.17,10.2,10.2,0,0,1-.5-1c-.22-.49-.52-1.13-.86-1.8a1.78,1.78,0,0,0-1.56-1,1.81,1.81,0,0,0-1.61.88c-2.94,5-5.79,11-8.8,17.38L39.69,95.2c-.28.59-2.61,2.8-3.86,2.8h-.62A3.45,3.45,0,0,1,33,97.42c-1.79-1.34-2-3.81-1.46-5.66a22.91,22.91,0,0,1,2.63-5.44,58.22,58.22,0,0,0,6.06-11.9,92.54,92.54,0,0,1,4.12-9,1.81,1.81,0,0,0,.28-.68c0-.18-.41-.49-.7-.71l-.2-.17c-2.57-2.07-2.57-5.57-2.57-8.38a10.06,10.06,0,0,1,5.93-8.62V43.1a3.94,3.94,0,0,1,.24-1.16c0-.12.07-.23.1-.35a4.08,4.08,0,0,1,3.87-2.94,3.18,3.18,0,0,1,2.25,1A5.12,5.12,0,0,1,55,43.1V47a6.65,6.65,0,0,1,2.36,1.27,6.15,6.15,0,0,1,1.5,1.7A6.92,6.92,0,0,0,59.64,51c1.76,2.09,1.48,7.29.74,9.42a11,11,0,0,1-3.05,4.05c.42.6,1,1.4,1.24,1.82a54.51,54.51,0,0,1,4.9,10.29c.72,1.94,1.54,4.14,3.06,7.36.25.53.48,1,.71,1.54a30.53,30.53,0,0,0,1.54,3.13l.4.67A8.11,8.11,0,0,1,70.82,94C70.82,96.45,69,98,66.13,98ZM51.31,72.27h.13a3.77,3.77,0,0,1,3.26,2.07c.36.7.66,1.36.9,1.88.16.36.28.63.35.75a5.29,5.29,0,0,1,.66,1.82q.07.36.18.72l.13.41c1.73,5.39,1.73,5.39,4.61,10.15a12.09,12.09,0,0,1,.7,1.75,19.69,19.69,0,0,0,1.11,2.75,2.49,2.49,0,0,1,.54.57c.36.45.69.88,2.25.88,1.24,0,2.72-.34,2.72-2,0-1.46-.46-2.2-1.36-3.69l-.41-.69h0a34.23,34.23,0,0,1-1.65-3.32c-.22-.49-.45-1-.7-1.52-1.54-3.3-2.38-5.53-3.12-7.51a52.06,52.06,0,0,0-4.74-10c-.31-.52-1.32-1.92-1.68-2.41a1,1,0,0,1,.19-1.37,10.72,10.72,0,0,0,3.13-3.74c.65-1.88.7-6.22-.39-7.51a10,10,0,0,1-.94-1.3,4.19,4.19,0,0,0-1.09-1.24,4.58,4.58,0,0,0-2.19-1,1,1,0,0,1-.88-1V43.09a3.17,3.17,0,0,0-.88-2,1.35,1.35,0,0,0-.85-.45,2.12,2.12,0,0,0-1.95,1.45c0,.16-.09.31-.14.47a3,3,0,0,0-.14.58v4.41a1,1,0,0,1-.72.95,8,8,0,0,0-5.21,7c0,3,.13,5.47,1.83,6.85l.19.15a3.12,3.12,0,0,1,1.43,2,3.07,3.07,0,0,1-.49,1.83,92.57,92.57,0,0,0-4,8.86A60.63,60.63,0,0,1,35.8,87.43a21.17,21.17,0,0,0-2.38,4.91,3.28,3.28,0,0,0,.76,3.5c.18.14.43.18,1,.18h.61a9.17,9.17,0,0,0,2.11-1.74l1.23-2.62c3-6.43,5.91-12.51,8.9-17.54A3.71,3.71,0,0,1,51.31,72.27Zm-.72-9.66a5.65,5.65,0,0,1-2.19-.42,5.26,5.26,0,0,1-3.17-5.9c.44-1.81,1.17-4.84,4.76-5.49,1-.19,4.16.17,5.16.92a4.57,4.57,0,0,1,1.65,2.77A6.79,6.79,0,0,1,55,60.82h0A6.37,6.37,0,0,1,50.59,62.61Zm.11-9.89a1.84,1.84,0,0,0-.36,0c-2.16.4-2.68,1.91-3.19,4a3.3,3.3,0,0,0,2,3.61,4.31,4.31,0,0,0,4.48-1h0a4.91,4.91,0,0,0,1.24-4.49A2.78,2.78,0,0,0,54,53.3,10.1,10.1,0,0,0,50.7,52.72Z"/></g></svg>