<svg xmlns="http://www.w3.org/2000/svg" viewBox="0 0 100 100"><defs><style>.cls-1{fill:#00599c;}.cls-1,.cls-2,.cls-3,.cls-4,.cls-5{stroke:#000;stroke-miterlimit:10;}.cls-1,.cls-2,.cls-3,.cls-4{stroke-width:2px;}.cls-2{fill:#004482;}.cls-3{fill:#659ad2;}.cls-4,.cls-5{fill:#fff;}</style></defs><title>Cpp</title><g id="Layer_2" data-name="Layer 2"><path class="cls-1" d="M90.93,74A7.48,7.48,0,0,0,92,70.42V30.15a7.51,7.51,0,0,0-1.07-3.6L49.81,50.29Z"/><path class="cls-2" d="M53.47,96.89,88.35,76.75A7.56,7.56,0,0,0,90.93,74L49.81,50.29,8.7,74a7.47,7.47,0,0,0,2.58,2.73L46.16,96.89A8.11,8.11,0,0,0,53.47,96.89Z"/><path class="cls-3" d="M90.93,26.55a7.56,7.56,0,0,0-2.58-2.73L53.47,3.68a8.11,8.11,0,0,0-7.31,0L11.28,23.82a8.1,8.1,0,0,0-3.65,6.33V70.42A7.48,7.48,0,0,0,8.7,74L49.81,50.29Z"/><path class="cls-4" d="M49.81,78.41a28.13,28.13,0,1,1,24.36-42.2L62,43.26a14.07,14.07,0,1,0,0,14.05l12.17,7A28.25,28.25,0,0,1,49.81,78.41Z"/><polygon class="cls-5" points="77.94 48.72 74.81 48.72 74.81 45.6 71.69 45.6 71.69 48.72 68.56 48.72 68.56 51.85 71.69 51.85 71.69 54.97 74.81 54.97 74.81 51.85 77.94 51.85 77.94 48.72"/><polygon class="cls-5" points="89.66 48.72 86.53 48.72 86.53 45.6 83.41 45.6 83.41 48.72 80.28 48.72 80.28 51.85 83.41 51.85 83.41 54.97 86.53 54.97 86.53 51.85 89.66 51.85 89.66 48.72"/></g></svg>