<svg xmlns="http://www.w3.org/2000/svg" viewBox="0 0 100 100"><defs><style>.cls-1{fill:#a179dc;}.cls-1,.cls-2,.cls-3,.cls-4,.cls-5{stroke:#000;stroke-miterlimit:10;}.cls-1,.cls-2,.cls-3,.cls-5{stroke-width:2px;}.cls-2{fill:#280068;}.cls-3{fill:#390091;}.cls-4,.cls-5{fill:#fff;}</style></defs><title>CSharp</title><g id="Layer_15" data-name="Layer 15"><path class="cls-1" d="M91.09,30a8.24,8.24,0,0,0-1-4.15,8,8,0,0,0-3-2.93Q70.45,13.36,53.84,3.79A8.16,8.16,0,0,0,45,3.88c-4.4,2.6-26.46,15.24-33,19.05a7.65,7.65,0,0,0-4,7.08q0,19.26,0,38.51a8.32,8.32,0,0,0,1,4.08,8,8,0,0,0,3.06,3c6.57,3.81,28.64,16.44,33,19a8.16,8.16,0,0,0,8.84.09q16.6-9.58,33.23-19.14a7.88,7.88,0,0,0,3.05-3,8.25,8.25,0,0,0,1-4.07V30"/><path class="cls-2" d="M49.64,49.14,8.9,72.6a8,8,0,0,0,3.06,3c6.57,3.81,28.64,16.44,33,19a8.16,8.16,0,0,0,8.84.09q16.6-9.58,33.23-19.14a7.88,7.88,0,0,0,3.05-3L49.64,49.14"/><path class="cls-3" d="M91.09,30a8.24,8.24,0,0,0-1-4.15L49.64,49.14,90.12,72.59a8.25,8.25,0,0,0,1-4.07V30"/><path class="cls-4" d="M73.62,40.37v4.39H78V40.37H80.2v4.39h4.38V47H80.2v4.38h4.38v2.2H80.2v4.38H78V53.53H73.62v4.38H71.43V53.53H67.05v-2.2h4.38V47H67.05V44.76h4.38V40.37ZM78,47H73.62v4.38H78Z"/><path class="cls-5" d="M49.73,18.36A30.89,30.89,0,0,1,76.49,33.8l0-.09L63,41.46A15.38,15.38,0,0,0,49.9,33.88h-.17A15.4,15.4,0,1,0,63.14,56.81l-.06.12,13.43,7.78A30.92,30.92,0,0,1,50.07,80.18h-.34a30.91,30.91,0,0,1,0-61.82Z"/></g></svg>