<svg xmlns="http://www.w3.org/2000/svg" viewBox="0 0 100 100"><defs><style>.cls-1{fill:#264de4;}.cls-1,.cls-2,.cls-3,.cls-4{stroke:#000;stroke-miterlimit:10;stroke-width:2px;}.cls-2{fill:#2965f1;}.cls-3{fill:#ebebeb;}.cls-4{fill:#fff;}</style></defs><title>CSS</title><g id="Layer_6" data-name="Layer 6"><polygon id="polygon2989" class="cls-1" points="88 7.04 81.03 85.1 49.71 93.78 18.47 85.11 11.51 7.04 88 7.04"/><polygon id="polygon2991" class="cls-2" points="75.07 80.13 81.02 13.42 49.76 13.42 49.76 87.15 75.07 80.13"/><polygon id="polygon2993" class="cls-3" points="27.47 42.38 28.33 51.95 49.76 51.95 49.76 42.38 27.47 42.38"/><polygon id="polygon2995" class="cls-3" points="49.76 23 49.72 23 25.75 23 26.62 32.57 49.76 32.57 49.76 23"/><polygon id="polygon2997" class="cls-3" points="49.76 77.21 49.76 67.25 49.71 67.26 39.05 64.38 38.37 56.74 33.19 56.74 28.76 56.74 30.1 71.78 49.71 77.22 49.76 77.21"/><polygon id="polygon3005" class="cls-4" points="61.51 51.95 60.4 64.37 49.72 67.26 49.72 77.22 69.35 71.78 69.5 70.16 71.75 44.95 71.98 42.38 73.71 23 49.72 23 49.72 32.57 63.22 32.57 62.34 42.38 49.72 42.38 49.72 51.95 61.51 51.95"/></g></svg>