<svg xmlns="http://www.w3.org/2000/svg" viewBox="0 0 232 100"><defs><style>.cls-1{fill:#fff;}</style></defs><title>Directx</title><g id="Layer_26" data-name="Layer 26"><rect class="cls-1" width="232" height="100"/><path d="M25.8,30.35h-2V18.92c0-.91.05-2,.16-3.32h-.05a10.48,10.48,0,0,1-.51,1.65L17.6,30.35h-1l-5.82-13a11.66,11.66,0,0,1-.51-1.75h0c.06.68.09,1.79.09,3.34V30.35H8.43v-17h2.63l5.23,11.88a14.8,14.8,0,0,1,.79,2h.07c.34-.93.61-1.63.82-2.09L23.3,13.31h2.5Z"/><path d="M31,15.09a1.21,1.21,0,0,1-.89-.36,1.19,1.19,0,0,1-.37-.9A1.25,1.25,0,0,1,31,12.56a1.28,1.28,0,0,1,.91.36,1.21,1.21,0,0,1,.37.91,1.19,1.19,0,0,1-.37.89A1.25,1.25,0,0,1,31,15.09ZM32,30.35H30V18.18H32Z"/><path d="M44.21,29.79a6.39,6.39,0,0,1-3.33.84,5.49,5.49,0,0,1-4.2-1.69,6.12,6.12,0,0,1-1.6-4.39,6.76,6.76,0,0,1,1.72-4.83,6,6,0,0,1,4.6-1.83,6.37,6.37,0,0,1,2.83.6v2a5,5,0,0,0-2.9-.95,3.94,3.94,0,0,0-3.06,1.34,5.09,5.09,0,0,0-1.19,3.51,4.84,4.84,0,0,0,1.12,3.38,3.88,3.88,0,0,0,3,1.23,4.89,4.89,0,0,0,3-1.06v1.86Z"/><path d="M53.5,20.15A2.38,2.38,0,0,0,52,19.76a2.48,2.48,0,0,0-2.09,1.18,5.4,5.4,0,0,0-.84,3.2v6.21h-2V18.18h2v2.51h0a4.28,4.28,0,0,1,1.27-2A2.9,2.9,0,0,1,52.34,18a3.19,3.19,0,0,1,1.16.17Z"/><path d="M60.38,30.63a5.68,5.68,0,0,1-4.31-1.7,6.35,6.35,0,0,1-1.61-4.52,6.56,6.56,0,0,1,1.68-4.79,6,6,0,0,1,4.53-1.73,5.43,5.43,0,0,1,4.24,1.68,6.65,6.65,0,0,1,1.53,4.65,6.56,6.56,0,0,1-1.64,4.66A5.77,5.77,0,0,1,60.38,30.63Zm.14-11.1a3.72,3.72,0,0,0-3,1.28,5.24,5.24,0,0,0-1.09,3.52,5,5,0,0,0,1.1,3.42,3.77,3.77,0,0,0,3,1.24,3.59,3.59,0,0,0,2.91-1.22,5.31,5.31,0,0,0,1-3.48,5.39,5.39,0,0,0-1-3.52A3.57,3.57,0,0,0,60.52,19.53Z"/><path d="M68.82,29.91V27.82A5.78,5.78,0,0,0,72.32,29c1.72,0,2.57-.57,2.57-1.71a1.44,1.44,0,0,0-.22-.82,2.1,2.1,0,0,0-.59-.6,4.07,4.07,0,0,0-.88-.47L72.11,25a12.84,12.84,0,0,1-1.42-.65,4,4,0,0,1-1-.73,2.81,2.81,0,0,1-.62-.93,3.3,3.3,0,0,1-.21-1.23,2.9,2.9,0,0,1,.39-1.51,3.58,3.58,0,0,1,1-1.11,4.82,4.82,0,0,1,1.49-.67,6.68,6.68,0,0,1,1.73-.23,7.07,7.07,0,0,1,2.83.55v2a5.59,5.59,0,0,0-3.09-.88,3.77,3.77,0,0,0-1,.13,2.36,2.36,0,0,0-.75.35,1.68,1.68,0,0,0-.49.54,1.47,1.47,0,0,0-.17.69,1.54,1.54,0,0,0,.68,1.37,3.56,3.56,0,0,0,.8.45c.32.14.68.28,1.09.44s1,.42,1.45.64a5,5,0,0,1,1.09.74,2.76,2.76,0,0,1,.69.94,3.31,3.31,0,0,1-.15,2.84,3.62,3.62,0,0,1-1.06,1.11,5,5,0,0,1-1.54.65,7.69,7.69,0,0,1-1.82.21A6.93,6.93,0,0,1,68.82,29.91Z"/><path d="M85,30.63a5.66,5.66,0,0,1-4.31-1.7,6.35,6.35,0,0,1-1.61-4.52,6.56,6.56,0,0,1,1.68-4.79,6,6,0,0,1,4.52-1.73,5.45,5.45,0,0,1,4.25,1.68A6.65,6.65,0,0,1,91,24.22a6.52,6.52,0,0,1-1.65,4.66A5.75,5.75,0,0,1,85,30.63Zm.14-11.1a3.72,3.72,0,0,0-3,1.28,5.24,5.24,0,0,0-1.09,3.52,5,5,0,0,0,1.1,3.42,3.76,3.76,0,0,0,3,1.24A3.59,3.59,0,0,0,88,27.77a5.36,5.36,0,0,0,1-3.48,5.45,5.45,0,0,0-1-3.52A3.57,3.57,0,0,0,85.11,19.53Z"/><path d="M99.72,14a2.66,2.66,0,0,0-1.3-.32q-2,0-2,2.58v1.88h2.85v1.66H96.38V30.35H94.44V19.84H92.36V18.18h2.08v-2a4.13,4.13,0,0,1,1.1-3,3.75,3.75,0,0,1,2.76-1.11,3.9,3.9,0,0,1,1.42.21V14Z"/><path d="M107.4,30.23a3.77,3.77,0,0,1-1.81.38c-2.14,0-3.2-1.19-3.2-3.57v-7.2H100.3V18.18h2.09v-3l2-.63v3.6h3.06v1.66h-3.06V26.7a2.9,2.9,0,0,0,.41,1.75,1.69,1.69,0,0,0,1.38.52,2,2,0,0,0,1.27-.41Z"/><path d="M8.4,81.22V34.68H21.25q24.6,0,24.6,22.69,0,10.77-6.83,17.31T20.73,81.22Zm5.45-41.61V76.29h7q9.15,0,14.24-4.9t5.1-13.89q0-17.89-19-17.89Z"/><path d="M57,39.55a3.37,3.37,0,0,1-2.44-1,3.28,3.28,0,0,1-1-2.46A3.4,3.4,0,0,1,57,32.63a3.43,3.43,0,0,1,2.48,1,3.32,3.32,0,0,1,1,2.49,3.29,3.29,0,0,1-1,2.43A3.41,3.41,0,0,1,57,39.55Zm2.59,41.67H54.29V48h5.32Z"/><path d="M87.72,53.37a6.53,6.53,0,0,0-4-1.07A6.78,6.78,0,0,0,78,55.52q-2.3,3.21-2.29,8.76V81.22H70.39V48h5.32v6.84h.13a11.64,11.64,0,0,1,3.47-5.46,7.93,7.93,0,0,1,5.23-2,8.55,8.55,0,0,1,3.18.46Z"/><path d="M119.33,65.93H95.87c.08,3.7,1.08,6.56,3,8.57a10.33,10.33,0,0,0,7.86,3A16.32,16.32,0,0,0,117,73.82v5Q112.65,82,105.44,82q-7,0-11.07-4.53t-4-12.74q0-7.76,4.4-12.64a14.11,14.11,0,0,1,10.92-4.88q6.52,0,10.09,4.22t3.57,11.71v2.79Zm-5.45-4.51a10.82,10.82,0,0,0-2.22-7.17,7.57,7.57,0,0,0-6.09-2.56,8.57,8.57,0,0,0-6.39,2.69,12.18,12.18,0,0,0-3.25,7Z"/><path d="M150,79.7A17.39,17.39,0,0,1,141,82a15,15,0,0,1-11.47-4.62q-4.38-4.63-4.37-12,0-8.2,4.71-13.19t12.56-5a17.5,17.5,0,0,1,7.72,1.62v5.45a13.55,13.55,0,0,0-7.92-2.59,10.69,10.69,0,0,0-8.36,3.65,13.87,13.87,0,0,0-3.26,9.59q0,5.83,3.07,9.22a10.57,10.57,0,0,0,8.23,3.37A13.33,13.33,0,0,0,150,74.63V79.7Z"/><path d="M173.5,80.9a10.27,10.27,0,0,1-5,1q-8.73,0-8.73-9.74V52.53h-5.72V48h5.72V39.87l5.32-1.72V48h8.37v4.54h-8.37V71.26c0,2.23.38,3.82,1.13,4.77A4.56,4.56,0,0,0,170,77.46a5.56,5.56,0,0,0,3.47-1.11Z"/><path d="M213.46,81.22H206.8L196.09,63.4A16.72,16.72,0,0,1,195,61.1h-.13c-.22.5-.58,1.26-1.1,2.3l-11,17.82h-6.68l15.57-23.4L177.3,34.68H184L193.5,51a35.34,35.34,0,0,1,1.65,3.24h.13a34.37,34.37,0,0,1,1.82-3.37L207,34.68h6.26L198.62,57.76Z"/><path d="M111.78,21.17a3.26,3.26,0,0,1-2.31-5.56,3.27,3.27,0,0,1,4.61,0,3.27,3.27,0,0,1,0,4.61A3.12,3.12,0,0,1,111.78,21.17Zm0-6.13a2.89,2.89,0,0,0-2.88,2.88,2.74,2.74,0,0,0,.85,2,2.87,2.87,0,0,0,4.06-4.07A2.77,2.77,0,0,0,111.78,15ZM113.36,20h-.7l-.46-1c-.22-.5-.47-.75-.73-.75h-.39V20h-.57V15.81h1.16a1.82,1.82,0,0,1,1.12.3,1,1,0,0,1,.39.83,1,1,0,0,1-.27.72,1.47,1.47,0,0,1-.78.41h0c.23.05.46.31.69.77Zm-2.28-3.65v1.42h.63c.57,0,.85-.24.85-.71a.63.63,0,0,0-.23-.55,1.36,1.36,0,0,0-.73-.16Z"/><path d="M217,41.56a3.24,3.24,0,0,1-3.26-3.26,3.26,3.26,0,1,1,6.51,0A3.24,3.24,0,0,1,217,41.56Zm0-6.13a2.87,2.87,0,0,0-2.88,2.87,2.76,2.76,0,0,0,.84,2,2.87,2.87,0,1,0,2-4.9Zm1.58,4.91h-.71l-.45-1c-.23-.49-.47-.74-.74-.74h-.38v1.74h-.58V36.19h1.17a1.84,1.84,0,0,1,1.12.31,1,1,0,0,1,.39.82,1,1,0,0,1-.28.73,1.39,1.39,0,0,1-.77.4v0c.23.05.46.3.68.76Zm-2.28-3.65v1.42h.62c.57,0,.86-.24.86-.72a.63.63,0,0,0-.23-.54,1.3,1.3,0,0,0-.73-.16Z"/></g></svg>