<svg xmlns="http://www.w3.org/2000/svg" viewBox="0 0 100 100"><defs><style>.cls-1{fill:#0acf83;}.cls-1,.cls-2,.cls-3,.cls-4,.cls-5{stroke:#000;stroke-miterlimit:10;stroke-width:2px;}.cls-2{fill:#a259ff;}.cls-3{fill:#f24e1e;}.cls-4{fill:#ff7262;}.cls-5{fill:#1abcfe;}</style></defs><title>Figma</title><g id="Layer_24" data-name="Layer 24"><path id="path0_fill" data-name="path0 fill" class="cls-1" d="M38.15,91.41A14.24,14.24,0,0,0,52.38,77.17V62.94H38.15a14.24,14.24,0,1,0,0,28.47Z"/><path id="path1_fill" data-name="path1 fill" class="cls-2" d="M23.91,48.7A14.24,14.24,0,0,1,38.15,34.47H52.38V62.94H38.15A14.25,14.25,0,0,1,23.91,48.7Z"/><path id="path1_fill-2" data-name="path1 fill" class="cls-3" d="M23.91,20.23A14.24,14.24,0,0,1,38.15,6H52.38V34.47H38.15A14.25,14.25,0,0,1,23.91,20.23Z"/><path id="path2_fill" data-name="path2 fill" class="cls-4" d="M52.38,6H66.62a14.24,14.24,0,0,1,0,28.47H52.38Z"/><path id="path3_fill" data-name="path3 fill" class="cls-5" d="M80.85,48.7A14.24,14.24,0,1,1,66.62,34.47,14.24,14.24,0,0,1,80.85,48.7Z"/></g></svg>