<svg xmlns="http://www.w3.org/2000/svg" viewBox="0 0 100 100"><defs><style>.cls-1{fill:#ffc24a;}.cls-1,.cls-10,.cls-6,.cls-7,.cls-9{stroke:#000;stroke-miterlimit:10;}.cls-2{fill:#ffa712;}.cls-2,.cls-5{fill-rule:evenodd;}.cls-3{fill:#f29611;}.cls-4{fill:#f4bd62;}.cls-5{fill:#ffa50e;}.cls-6{fill:#efac14;stroke-width:0.5px;}.cls-7{fill:#f6820c;stroke-width:0.25px;}.cls-8{fill:#fde068;}.cls-9{fill:#fcca3f;}.cls-10{fill:#eeab37;}</style></defs><title>Firebase</title><g id="Layer_10" data-name="Layer 10"><path class="cls-1" d="M15.6,78.4l.57-.8L43,26.63l.06-.54L31.24,3.85a2.2,2.2,0,0,0-4.11.7Z"/><path id="path-1" class="cls-2" d="M15.93,77.79l.43-.84L42.94,26.52,31.13,4.19a2,2,0,0,0-3.79.69Z"/><path id="path-1-2" data-name="path-1" class="cls-3" d="M15.93,77.79l.43-.84L42.94,26.52,31.13,4.19a2,2,0,0,0-3.79.69Z"/><path class="cls-4" d="M51.72,42.92l8.81-9L51.71,17.05a2.27,2.27,0,0,0-4,0L43,26v.76Z"/><path id="path-3" class="cls-5" d="M51.56,42.54l8.57-8.78L51.56,17.44a2,2,0,0,0-3.6-.16l-4.73,9.13-.14.47Z"/><path id="path-3-2" data-name="path-3" class="cls-6" d="M51.56,42.54l8.57-8.78L51.56,17.44a2,2,0,0,0-3.6-.16l-4.73,9.13-.14.47Z"/><polygon class="cls-7" points="15.6 78.4 15.86 78.14 16.79 77.76 51.16 43.52 51.6 42.33 43.02 25.99 15.6 78.4"/><path class="cls-8" d="M52.82,95.67,83.93,78.32,75,23.61a2.12,2.12,0,0,0-3.6-1.16L15.6,78.4,46.53,95.67a6.46,6.46,0,0,0,6.29,0"/><path class="cls-9" d="M83.65,78.17,74.83,23.88a1.87,1.87,0,0,0-3.24-1.18L15.94,78.29l30.59,17.1a6.43,6.43,0,0,0,6.25,0Z"/><path class="cls-10" d="M52.82,95.16a6.46,6.46,0,0,1-6.29,0l-30.68-17-.25.27L46.53,95.67a6.46,6.46,0,0,0,6.29,0L83.93,78.32l-.08-.47Z"/></g></svg>