<svg xmlns="http://www.w3.org/2000/svg" xmlns:xlink="http://www.w3.org/1999/xlink" viewBox="0 0 100 100"><defs><style>.cls-1{fill:none;}.cls-1,.cls-3,.cls-4,.cls-5,.cls-6{stroke:#000;stroke-miterlimit:10;stroke-width:2px;}.cls-2{clip-path:url(#clip-path);}.cls-3{fill:#39cefd;}.cls-4{fill:#03569b;}.cls-5{fill:#16b9fd;}.cls-6{fill:url(#radial-gradient);}</style><clipPath id="clip-path"><path id="SVGID" class="cls-1" d="M77.23,47.41,56.44,68.21,77.23,89H53.48l-8.92-8.91L32.68,68.21l20.8-20.8ZM53.48,11.78,14.87,50.39,26.75,62.27,77.23,11.78Z"/></clipPath><radialGradient id="radial-gradient" cx="46.05" cy="50.39" r="35.09" gradientTransform="matrix(0, 0, 0, 0, -660.3, -388.07)" gradientUnits="userSpaceOnUse"><stop offset="0" stop-color="#fff" stop-opacity="0.1"/><stop offset="1" stop-color="#fff" stop-opacity="0"/></radialGradient></defs><title>Flutter</title><g id="Layer_13" data-name="Layer 13"><g class="cls-2"><path class="cls-3" d="M44.56,80.09,77.23,47.41H53.48L32.69,68.21Z"/></g><path id="SVGID-5" data-name="SVGID" class="cls-1" d="M77.23,47.41,56.44,68.21,77.23,89H53.48l-8.92-8.91L32.68,68.21l20.8-20.8ZM53.48,11.78,14.87,50.39,26.75,62.27,77.23,11.78Z"/><g class="cls-2"><path class="cls-3" d="M14.87,50.39,53.48,11.78H77.23L26.75,62.27Z"/></g><path id="SVGID-6" data-name="SVGID" class="cls-1" d="M77.23,47.41,56.44,68.21,77.23,89H53.48l-8.92-8.91L32.68,68.21l20.8-20.8ZM53.48,11.78,14.87,50.39,26.75,62.27,77.23,11.78Z"/><g class="cls-2"><path class="cls-4" d="M53.48,89H77.23L56.44,68.21,44.56,80.09Z"/></g><path id="SVGID-7" data-name="SVGID" class="cls-1" d="M77.23,47.41,56.44,68.21,77.23,89H53.48l-8.92-8.91L32.68,68.21l20.8-20.8ZM53.48,11.78,14.87,50.39,26.75,62.27,77.23,11.78Z"/><path id="SVGID-8" data-name="SVGID" class="cls-1" d="M77.23,47.41,56.44,68.21,77.23,89H53.48l-8.92-8.91L32.68,68.21l20.8-20.8ZM53.48,11.78,14.87,50.39,26.75,62.27,77.23,11.78Z"/><g class="cls-2"><path class="cls-5" d="M32.69,68.2,44.57,56.32,56.45,68.2,44.57,80.09Z"/></g><path id="SVGID-9" data-name="SVGID" class="cls-1" d="M77.23,47.41,56.44,68.21,77.23,89H53.48l-8.92-8.91L32.68,68.21l20.8-20.8ZM53.48,11.78,14.87,50.39,26.75,62.27,77.23,11.78Z"/><path class="cls-6" d="M77.23,47.41,56.44,68.21,77.23,89H53.48l-8.92-8.91L32.68,68.21l20.8-20.8ZM53.48,11.78,14.87,50.39,26.75,62.27,77.23,11.78Z"/></g></svg>