<svg xmlns="http://www.w3.org/2000/svg" xmlns:xlink="http://www.w3.org/1999/xlink" viewBox="0 0 100 100"><defs><style>.cls-1,.cls-2,.cls-3,.cls-4,.cls-5,.cls-6{stroke:#000;stroke-miterlimit:10;stroke-width:2px;}.cls-1{fill:url(#linear-gradient);}.cls-2{fill:url(#linear-gradient-2);}.cls-3{fill:url(#linear-gradient-3);}.cls-4{fill:url(#linear-gradient-4);}.cls-6{fill:#fff;}</style><linearGradient id="linear-gradient" x1="8.69" y1="-192.48" x2="47.81" y2="-192.48" gradientTransform="matrix(1, 0, 0, -1, 0, -138)" gradientUnits="userSpaceOnUse"><stop offset="0.26" stop-color="#f97a12"/><stop offset="0.46" stop-color="#b07b58"/><stop offset="0.72" stop-color="#577bae"/><stop offset="0.91" stop-color="#1e7ce5"/><stop offset="1" stop-color="#087cfa"/></linearGradient><linearGradient id="linear-gradient-2" x1="38.73" y1="-174.18" x2="103.33" y2="-209.92" gradientTransform="matrix(1, 0, 0, -1, 0, -138)" gradientUnits="userSpaceOnUse"><stop offset="0" stop-color="#f97a12"/><stop offset="0.07" stop-color="#cb7a3e"/><stop offset="0.15" stop-color="#9e7b6a"/><stop offset="0.24" stop-color="#757b91"/><stop offset="0.33" stop-color="#537bb1"/><stop offset="0.43" stop-color="#387ccc"/><stop offset="0.54" stop-color="#237ce0"/><stop offset="0.66" stop-color="#147cef"/><stop offset="0.79" stop-color="#0b7cf7"/><stop offset="1" stop-color="#087cfa"/></linearGradient><linearGradient id="linear-gradient-3" x1="83.86" y1="-195.86" x2="65.87" y2="-142.12" gradientTransform="matrix(1, 0, 0, -1, 0, -138)" gradientUnits="userSpaceOnUse"><stop offset="0" stop-color="#fe315d"/><stop offset="0.08" stop-color="#cb417e"/><stop offset="0.16" stop-color="#9e4e9b"/><stop offset="0.25" stop-color="#755bb4"/><stop offset="0.34" stop-color="#5365ca"/><stop offset="0.44" stop-color="#386ddb"/><stop offset="0.54" stop-color="#2374e9"/><stop offset="0.66" stop-color="#1478f3"/><stop offset="0.79" stop-color="#0b7bf8"/><stop offset="1" stop-color="#087cfa"/></linearGradient><linearGradient id="linear-gradient-4" x1="20.59" y1="-164.05" x2="74.54" y2="-253.27" gradientTransform="matrix(1, 0, 0, -1, 0, -138)" gradientUnits="userSpaceOnUse"><stop offset="0" stop-color="#fe315d"/><stop offset="0.04" stop-color="#f63462"/><stop offset="0.1" stop-color="#df3a71"/><stop offset="0.17" stop-color="#c24383"/><stop offset="0.29" stop-color="#ad4a91"/><stop offset="0.55" stop-color="#755bb4"/><stop offset="0.92" stop-color="#1d76ed"/><stop offset="1" stop-color="#087cfa"/></linearGradient></defs><title>Intelij Idea</title><g id="Layer_21" data-name="Layer 21"><polygon class="cls-1" points="29.03 71.93 8.69 55.8 18.8 37.02 47.81 48.34 29.03 71.93"/><polygon class="cls-2" points="92 28.71 90.44 77.47 58.05 90.47 38.54 77.95 67.08 48.34 54.56 21.01 65.75 7.52 92 28.71"/><polygon class="cls-3" points="92 28.71 66.36 59.05 54.56 21.01 65.75 7.52 92 28.71"/><polygon class="cls-4" points="48.3 76.15 14.46 88.43 19.88 69.41 26.99 46.05 7.72 39.55 19.88 6.2 46.37 9.45 72.38 39.19 48.3 76.15"/><rect class="cls-5" x="24.22" y="22.45" width="52.01" height="52.01"/><rect class="cls-6" x="29.03" y="64.71" width="19.5" height="3.25"/><polygon class="cls-6" points="43.12 33.17 43.12 29.19 32.28 29.19 32.28 33.17 35.41 33.17 35.41 46.77 32.28 46.77 32.28 50.74 43.12 50.74 43.12 46.77 40.11 46.77 40.11 33.17 43.12 33.17"/><path class="cls-6" d="M53.47,51.1a8.73,8.73,0,0,1-4.21-1,10.27,10.27,0,0,1-2.77-2.29l3-3.37a6.71,6.71,0,0,0,1.81,1.57,4,4,0,0,0,2,.6,2.9,2.9,0,0,0,2.17-.84A4.26,4.26,0,0,0,56.24,43V29.19h4.82V43.28a9.52,9.52,0,0,1-.48,3.37A6.46,6.46,0,0,1,59,49.06,5.35,5.35,0,0,1,56.6,50.5a8.51,8.51,0,0,1-3.13.6"/></g></svg>