<svg xmlns="http://www.w3.org/2000/svg" viewBox="0 0 100 100"><defs><style>.cls-1{fill:#f7df1e;}.cls-1,.cls-2{stroke:#000;stroke-miterlimit:10;stroke-width:2px;}</style></defs><title>JavaScript</title><g id="Layer_8" data-name="Layer 8"><path class="cls-1" d="M6.25,6.2H94V94H6.25Z"/><path class="cls-2" d="M29.32,79.53,36,75.46c1.29,2.3,2.47,4.25,5.3,4.25s4.42-1.06,4.42-5.19v-28H54V74.64c0,8.54-5,12.43-12.31,12.43-6.6,0-10.43-3.42-12.37-7.54"/><path class="cls-2" d="M58.48,78.65l6.72-3.89c1.76,2.88,4.06,5,8.12,5,3.42,0,5.6-1.7,5.6-4.06,0-2.83-2.24-3.83-6-5.48l-2.06-.88C64.9,66.81,61,63.62,61,56.91,61,50.72,65.67,46,73,46c5.24,0,9,1.83,11.72,6.6l-6.42,4.12C76.92,54.2,75.39,53.2,73,53.2s-4,1.53-4,3.53c0,2.48,1.54,3.48,5.07,5l2.06.88c7,3,11,6.07,11,13,0,7.42-5.83,11.49-13.67,11.49-7.66,0-12.6-3.65-15-8.42"/></g></svg>