<svg xmlns="http://www.w3.org/2000/svg" viewBox="0 0 231 100"><defs><style>.cls-1{fill:#333;}.cls-1,.cls-2,.cls-3{stroke:#000;stroke-miterlimit:10;stroke-width:2px;}.cls-1,.cls-2{fill-rule:evenodd;}.cls-2,.cls-3{fill:#80bd01;}</style></defs><title>Nodejs</title><g id="Layer_27" data-name="Layer 27"><path class="cls-1" d="M36.3,47.48a1.79,1.79,0,0,0-.89-1.55L20.69,37.46a1.68,1.68,0,0,0-.81-.23h-.16a1.68,1.68,0,0,0-.81.23L4.19,45.93a1.79,1.79,0,0,0-.89,1.55l0,22.82a.86.86,0,0,0,.44.76.84.84,0,0,0,.89,0l8.75-5a1.8,1.8,0,0,0,.89-1.54V53.85a1.76,1.76,0,0,1,.89-1.54l3.72-2.15a1.76,1.76,0,0,1,.89-.23,1.74,1.74,0,0,1,.89.23l3.72,2.15a1.78,1.78,0,0,1,.89,1.54V64.51a1.79,1.79,0,0,0,.89,1.54l8.75,5a.84.84,0,0,0,.89,0,.88.88,0,0,0,.44-.76Z"/><path class="cls-1" d="M114.92,16.11a.89.89,0,0,0-1.32.78v22.6a.61.61,0,0,1-.31.53.58.58,0,0,1-.62,0L109,37.9a1.77,1.77,0,0,0-1.78,0L92.47,46.4a1.79,1.79,0,0,0-.89,1.54V65a1.79,1.79,0,0,0,.89,1.54L107.2,75A1.77,1.77,0,0,0,109,75l14.73-8.5A1.79,1.79,0,0,0,124.6,65V22.56a1.79,1.79,0,0,0-.91-1.56Zm-1.36,43.25a.44.44,0,0,1-.23.38l-5,2.92a.45.45,0,0,1-.45,0l-5-2.92a.44.44,0,0,1-.23-.38V53.52a.47.47,0,0,1,.22-.39l5.06-2.92a.45.45,0,0,1,.45,0l5,2.92a.45.45,0,0,1,.23.39Z"/><path class="cls-1" d="M167.62,53.37a1.79,1.79,0,0,0,.89-1.54V47.71a1.78,1.78,0,0,0-.89-1.54L153,37.67a1.79,1.79,0,0,0-1.79,0l-14.72,8.5a1.79,1.79,0,0,0-.89,1.54v17a1.78,1.78,0,0,0,.9,1.55l14.63,8.33a1.74,1.74,0,0,0,1.74,0l8.86-4.92a.89.89,0,0,0,0-1.54l-14.82-8.51a.88.88,0,0,1-.45-.77V53.53a.88.88,0,0,1,.45-.77l4.61-2.66a.89.89,0,0,1,.89,0L157,52.76a.88.88,0,0,1,.45.77v4.19a.89.89,0,0,0,1.33.77Z"/><path class="cls-2" d="M63.08,37.58a1.77,1.77,0,0,1,1.78,0l14.73,8.5a1.78,1.78,0,0,1,.89,1.54v17a1.78,1.78,0,0,1-.89,1.54L64.86,74.68a1.77,1.77,0,0,1-1.78,0L48.36,66.17a1.78,1.78,0,0,1-.89-1.54v-17a1.78,1.78,0,0,1,.89-1.54Z"/><path class="cls-3" d="M205.35,74.94a3.67,3.67,0,0,1-1.85-.5L197.59,71c-.88-.5-.45-.67-.16-.77A12,12,0,0,0,200.1,69a.49.49,0,0,1,.44,0l4.54,2.7a.59.59,0,0,0,.55,0l17.69-10.21a.59.59,0,0,0,.27-.48V40.58a.59.59,0,0,0-.27-.49l-17.69-10.2a.54.54,0,0,0-.55,0L187.4,40.09a.58.58,0,0,0-.28.49V61a.54.54,0,0,0,.28.47l4.85,2.8c2.63,1.32,4.24-.23,4.24-1.79V42.32a.51.51,0,0,1,.51-.51h2.25a.51.51,0,0,1,.51.51V62.48c0,3.51-1.91,5.52-5.24,5.52a7.63,7.63,0,0,1-4.08-1.1l-4.64-2.67A3.77,3.77,0,0,1,184,61V40.58a3.74,3.74,0,0,1,1.85-3.23l17.7-10.22a3.9,3.9,0,0,1,3.72,0l17.69,10.22a3.76,3.76,0,0,1,1.86,3.23V61a3.77,3.77,0,0,1-1.86,3.23L207.22,74.44A3.72,3.72,0,0,1,205.35,74.94Z"/><path class="cls-3" d="M210.82,60.87c-7.74,0-9.37-3.55-9.37-6.54a.51.51,0,0,1,.51-.51h2.29a.52.52,0,0,1,.51.44c.35,2.33,1.38,3.5,6.06,3.5,3.73,0,5.31-.84,5.31-2.82,0-1.14-.45-2-6.24-2.55-4.84-.48-7.84-1.55-7.84-5.42,0-3.57,3-5.7,8.06-5.7,5.67,0,8.47,2,8.83,6.19a.52.52,0,0,1-.14.39.51.51,0,0,1-.37.16h-2.3a.51.51,0,0,1-.5-.4c-.55-2.45-1.89-3.23-5.52-3.23-4.07,0-4.54,1.42-4.54,2.48,0,1.29.55,1.66,6.05,2.39s8,1.73,8,5.56S216.43,60.87,210.82,60.87Z"/><path class="cls-2" d="M151.88,52.57a.34.34,0,0,1,.34,0L155,54.2a.34.34,0,0,1,.18.3v3.26a.36.36,0,0,1-.18.3l-2.82,1.63a.34.34,0,0,1-.34,0l-2.83-1.63a.38.38,0,0,1-.17-.3V54.5a.35.35,0,0,1,.17-.3Z"/></g></svg>