<svg xmlns="http://www.w3.org/2000/svg" viewBox="0 0 133 100"><defs><style>.cls-1{fill:#333;}.cls-1,.cls-2,.cls-3{stroke:#000;stroke-miterlimit:10;}.cls-1,.cls-2{fill-rule:evenodd;}.cls-2,.cls-3{fill:#80bd01;}</style></defs><title>Nodejs</title><g id="Layer_14" data-name="Layer 14"><path class="cls-1" d="M20,47a1,1,0,0,0-.51-.87l-8.35-4.81a.94.94,0,0,0-.46-.13h-.09a1,1,0,0,0-.46.13L1.78,46.16a1,1,0,0,0-.51.87L1.29,60a.5.5,0,0,0,.25.43.47.47,0,0,0,.51,0l5-2.84a1,1,0,0,0,.5-.88v-6A1,1,0,0,1,8,49.77l2.11-1.21a.94.94,0,0,1,.51-.14.9.9,0,0,1,.5.14l2.11,1.21a1,1,0,0,1,.51.88v6a1,1,0,0,0,.5.88l5,2.84a.45.45,0,0,0,.5,0A.5.5,0,0,0,20,60Z"/><path class="cls-1" d="M64.6,29.24a.5.5,0,0,0-.5,0,.52.52,0,0,0-.25.44V42.5a.35.35,0,0,1-.18.3.32.32,0,0,1-.35,0l-2.09-1.2a1,1,0,0,0-1,0l-8.36,4.82a1,1,0,0,0-.5.87v9.65a1,1,0,0,0,.5.88l8.36,4.82a1,1,0,0,0,1,0l8.36-4.82a1,1,0,0,0,.5-.88v-24a1,1,0,0,0-.52-.88Zm-.77,24.53a.25.25,0,0,1-.13.22l-2.87,1.65a.23.23,0,0,1-.25,0L57.71,54a.25.25,0,0,1-.13-.22V50.46a.26.26,0,0,1,.13-.22l2.87-1.66a.28.28,0,0,1,.25,0l2.87,1.66a.26.26,0,0,1,.13.22Z"/><path class="cls-1" d="M94.5,50.37a1,1,0,0,0,.5-.87V47.16a1,1,0,0,0-.5-.87l-8.31-4.82a1,1,0,0,0-1,0l-8.35,4.82a1,1,0,0,0-.5.87v9.65a1,1,0,0,0,.51.88l8.3,4.73a1,1,0,0,0,1,0l5-2.79a.5.5,0,0,0,0-.88l-8.4-4.82a.51.51,0,0,1-.26-.44v-3a.51.51,0,0,1,.26-.44l2.61-1.51a.52.52,0,0,1,.51,0L88.48,50a.51.51,0,0,1,.26.44v2.37a.49.49,0,0,0,.25.44.5.5,0,0,0,.5,0Z"/><path class="cls-2" d="M35.19,41.42a1,1,0,0,1,1,0l8.36,4.82a1,1,0,0,1,.5.87v9.65a1,1,0,0,1-.5.88L36.2,62.46a1,1,0,0,1-1,0l-8.35-4.82a1,1,0,0,1-.51-.88V47.11a1,1,0,0,1,.51-.87Z"/><path class="cls-3" d="M115.9,62.61a2.17,2.17,0,0,1-1.05-.28l-3.35-2c-.5-.28-.26-.38-.09-.44a6.67,6.67,0,0,0,1.51-.69.25.25,0,0,1,.25,0l2.58,1.53a.34.34,0,0,0,.31,0l10-5.8a.32.32,0,0,0,.15-.27V43.12a.32.32,0,0,0-.16-.28l-10-5.79a.34.34,0,0,0-.31,0l-10,5.79a.33.33,0,0,0-.16.28V54.7a.3.3,0,0,0,.16.27l2.75,1.59c1.49.74,2.4-.13,2.4-1V44.11a.29.29,0,0,1,.3-.29h1.27a.28.28,0,0,1,.29.29V55.54c0,2-1.08,3.14-3,3.14a4.27,4.27,0,0,1-2.31-.63l-2.64-1.52a2.11,2.11,0,0,1-1-1.83V43.12a2.1,2.1,0,0,1,1-1.83l10-5.8a2.2,2.2,0,0,1,2.11,0l10,5.8a2.1,2.1,0,0,1,1.05,1.83V54.7A2.12,2.12,0,0,1,127,56.53l-10,5.8A2.15,2.15,0,0,1,115.9,62.61Z"/><path class="cls-3" d="M119,54.63c-4.39,0-5.31-2-5.31-3.71a.29.29,0,0,1,.29-.29h1.3a.3.3,0,0,1,.29.25c.19,1.32.78,2,3.43,2,2.12,0,3-.48,3-1.6,0-.65-.26-1.13-3.54-1.45-2.75-.27-4.45-.88-4.45-3.08,0-2,1.71-3.23,4.57-3.23,3.22,0,4.81,1.11,5,3.51a.27.27,0,0,1-.08.22.28.28,0,0,1-.21.1H122a.28.28,0,0,1-.28-.23c-.32-1.39-1.08-1.84-3.14-1.84-2.31,0-2.58.81-2.58,1.41s.32.94,3.44,1.36S124,49,124,51.19,122.19,54.63,119,54.63Z"/><path class="cls-2" d="M85.57,49.92a.21.21,0,0,1,.19,0l1.6.93a.18.18,0,0,1,.1.16v1.86a.19.19,0,0,1-.1.16l-1.6.93a.21.21,0,0,1-.19,0L84,53a.18.18,0,0,1-.09-.16V51a.17.17,0,0,1,.09-.16Z"/></g></svg>