<svg xmlns="http://www.w3.org/2000/svg" xmlns:xlink="http://www.w3.org/1999/xlink" viewBox="0 0 100 100"><defs><style>.cls-1,.cls-2,.cls-3,.cls-4,.cls-5,.cls-6,.cls-7{stroke:#000;stroke-miterlimit:10;stroke-width:2px;}.cls-1{fill:url(#linear-gradient);}.cls-2{fill:url(#linear-gradient-2);}.cls-3{fill:url(#linear-gradient-3);}.cls-4{fill:url(#linear-gradient-4);}.cls-5{fill:url(#linear-gradient-5);}.cls-7{fill:#fff;}</style><linearGradient id="linear-gradient" x1="38.29" y1="-176.14" x2="87.57" y2="-176.14" gradientTransform="matrix(1, 0, 0, -1, 0, -138)" gradientUnits="userSpaceOnUse"><stop offset="0" stop-color="#21d789"/><stop offset="1" stop-color="#07c3f2"/></linearGradient><linearGradient id="linear-gradient-2" x1="-20.34" y1="-214.07" x2="81.13" y2="-139.17" gradientTransform="matrix(1, 0, 0, -1, 0, -138)" gradientUnits="userSpaceOnUse"><stop offset="0.01" stop-color="#fcf84a"/><stop offset="0.11" stop-color="#a7eb62"/><stop offset="0.21" stop-color="#5fe077"/><stop offset="0.27" stop-color="#32da84"/><stop offset="0.31" stop-color="#21d789"/><stop offset="0.58" stop-color="#21d789"/><stop offset="0.6" stop-color="#21d789"/><stop offset="0.69" stop-color="#20d68c"/><stop offset="0.76" stop-color="#1ed497"/><stop offset="0.83" stop-color="#19d1a9"/><stop offset="0.9" stop-color="#13ccc2"/><stop offset="0.97" stop-color="#0bc6e1"/><stop offset="1" stop-color="#07c3f2"/></linearGradient><linearGradient id="linear-gradient-3" x1="19.76" y1="-236.06" x2="36.69" y2="-182.95" gradientTransform="matrix(1, 0, 0, -1, 0, -138)" gradientUnits="userSpaceOnUse"><stop offset="0" stop-color="#21d789"/><stop offset="0.16" stop-color="#24d788"/><stop offset="0.3" stop-color="#2fd886"/><stop offset="0.44" stop-color="#41da82"/><stop offset="0.56" stop-color="#5adc7d"/><stop offset="0.69" stop-color="#7ae077"/><stop offset="0.81" stop-color="#a1e36e"/><stop offset="0.93" stop-color="#cfe865"/><stop offset="1" stop-color="#f1eb5e"/></linearGradient><linearGradient id="linear-gradient-4" x1="42.13" y1="-189.86" x2="78.96" y2="-140.34" gradientTransform="matrix(1, 0, 0, -1, 0, -138)" gradientUnits="userSpaceOnUse"><stop offset="0" stop-color="#21d789"/><stop offset="0.06" stop-color="#24d788"/><stop offset="0.11" stop-color="#2fd886"/><stop offset="0.16" stop-color="#41da82"/><stop offset="0.21" stop-color="#5add7d"/><stop offset="0.25" stop-color="#79e077"/><stop offset="0.26" stop-color="#7ce076"/><stop offset="0.5" stop-color="#8ce173"/><stop offset="0.92" stop-color="#b2e56b"/></linearGradient><linearGradient id="linear-gradient-5" x1="98.49" y1="-196.19" x2="24.29" y2="-195.5" gradientTransform="matrix(1, 0, 0, -1, 0, -138)" gradientUnits="userSpaceOnUse"><stop offset="0.39" stop-color="#fcf84a"/><stop offset="0.54" stop-color="#ecf451"/><stop offset="0.83" stop-color="#c2e964"/><stop offset="0.92" stop-color="#b2e56b"/></linearGradient></defs><title>Pycharm</title><g id="Layer_22" data-name="Layer 22"><polygon class="cls-1" points="66.8 19.21 90.93 39.44 82.3 57.06 67.63 53.04 55.09 53.04 66.8 19.21"/><polygon class="cls-2" points="42.44 32.34 37.7 57.06 37.23 65.58 25.52 70.67 8.72 72.44 13.81 18.85 44.09 6.2 62.78 18.5 42.44 32.34"/><polygon class="cls-3" points="42.44 32.34 44.68 80.13 37.11 89 8.72 72.44 32.03 37.66 42.44 32.34"/><polygon class="cls-4" points="73.66 28.79 44.92 28.79 70.35 6.2 73.66 28.79"/><polygon class="cls-5" points="91.53 80.25 66.21 88.88 32.62 79.42 42.44 32.34 46.34 28.79 66.8 26.9 64.91 47.48 81.23 41.21 91.53 80.25"/><rect class="cls-6" x="24.57" y="22.05" width="51.1" height="51.1"/><rect class="cls-7" x="29.42" y="63.57" width="19.16" height="3.19"/><path class="cls-7" d="M29.19,28.79h8.63c5.09,0,8.16,3,8.16,7.33v.12c0,4.85-3.78,7.45-8.51,7.45H33.92V50H29.31V28.79Zm8.4,10.65c2.36,0,3.66-1.42,3.66-3.2v-.12c0-2.12-1.42-3.19-3.78-3.19H33.92v6.51Z"/><path class="cls-7" d="M47.88,39.44h0a10.75,10.75,0,0,1,11-11,10.83,10.83,0,0,1,8.4,3.31l-3,3.43a7.63,7.63,0,0,0-5.44-2.37c-3.55,0-6.15,3-6.15,6.63v-.12c0,3.67,2.48,6.62,6.15,6.62a7.62,7.62,0,0,0,5.56-2.48l3,3a10.63,10.63,0,0,1-8.63,3.78A10.53,10.53,0,0,1,47.88,39.44"/></g></svg>