<svg xmlns="http://www.w3.org/2000/svg" xmlns:xlink="http://www.w3.org/1999/xlink" viewBox="0 0 100 100"><defs><style>.cls-1,.cls-2{stroke:#000;stroke-miterlimit:10;stroke-width:2px;}.cls-1{fill:url(#linear-gradient);}.cls-2{fill:url(#linear-gradient-2);}</style><linearGradient id="linear-gradient" x1="60.74" y1="342.2" x2="60.99" y2="341.96" gradientTransform="matrix(189.38, 0, 0, -189.81, -11491.24, 64964.83)" gradientUnits="userSpaceOnUse"><stop offset="0" stop-color="#387eb8"/><stop offset="1" stop-color="#366994"/></linearGradient><linearGradient id="linear-gradient-2" x1="60.54" y1="342.39" x2="60.81" y2="342.14" gradientTransform="matrix(189.38, 0, 0, -189.81, -11425.24, 65029.1)" gradientUnits="userSpaceOnUse"><stop offset="0" stop-color="#ffe052"/><stop offset="1" stop-color="#ffc331"/></linearGradient></defs><title>Python</title><g id="Layer_3" data-name="Layer 3"><path class="cls-1" d="M50,3.86c-23.67,0-22.19,10.26-22.19,10.26l0,10.64h22.6V28H18.89S3.74,26.24,3.74,50.13,17,73.17,17,73.17h7.89V62.08s-.42-13.22,13-13.22h22.4s12.59.2,12.59-12.17V16.24S74.78,3.86,50,3.86ZM37.58,11a4.07,4.07,0,1,1-4.07,4.06A4.06,4.06,0,0,1,37.58,11Z"/><path class="cls-2" d="M50.71,96.63c23.67,0,22.19-10.26,22.19-10.26l0-10.64H50.28V72.54H81.85S97,74.25,97,50.36s-13.22-23-13.22-23H75.89V38.41s.42,13.22-13,13.22H40.46s-12.58-.2-12.58,12.17V84.25S26,96.63,50.71,96.63Zm12.45-7.15a4.07,4.07,0,1,1,4.07-4.06,4.06,4.06,0,0,1-4.07,4.06Z"/></g></svg>