<svg xmlns="http://www.w3.org/2000/svg" viewBox="0 0 100 100"><defs><style>.cls-1{fill:#00d8ff;stroke:#000;stroke-miterlimit:10;stroke-width:2px;}</style></defs><title>React</title><g id="Layer_4" data-name="Layer 4"><circle class="cls-1" cx="49.95" cy="49.59" r="8.4"/><path class="cls-1" d="M50,68.84c-11.8,0-22.12-1.39-29.85-4C9.49,61.18,2.9,55.35,2.9,49.59,2.9,44,9,38.59,19.22,35,27.6,32.11,38.52,30.5,50,30.5h0c11.22,0,22,1.58,30.32,4.45C90.75,38.56,97,44,97,49.59c0,5.77-6.82,11.62-17.8,15.25C71.41,67.42,61,68.84,50,68.84ZM50,34.5c-10.84,0-21.56,1.57-29.41,4.31C11.12,42.09,6.9,46.59,6.9,49.59s4.54,8,14.5,11.43c7.31,2.5,17.18,3.82,28.55,3.82,10.66,0,20.6-1.34,28-3.79C88.29,57.62,93,52.7,93,49.59c0-2.9-4.39-7.54-14-10.86C71,36,60.74,34.5,50,34.5Z"/><path class="cls-1" d="M30.89,91.5a8.94,8.94,0,0,1-4.52-1.11C21.56,87.62,19.9,79.61,21.92,69c1.65-8.72,5.71-19,11.42-28.89h0c5.61-9.72,12.36-18.26,19-24,8.36-7.27,16.23-10,21-7.18,5,2.89,6.66,11.72,4.32,23.05-1.65,8-5.61,17.73-11.14,27.33C60.66,69.48,54.3,77.72,48.15,83.09S35.71,91.5,30.89,91.5Zm5.92-49.41c-5.42,9.39-9.41,19.46-11,27.63-1.87,9.81-.08,15.71,2.52,17.2s9.22.09,17.15-6.84c5.82-5.09,11.89-13,17.57-22.83,5.33-9.23,9.13-18.52,10.7-26.14,2.2-10.68.29-17.22-2.41-18.77-2.51-1.45-8.72,0-16.41,6.73-6.32,5.5-12.77,13.68-18.16,23Z"/><path class="cls-1" d="M69,91.54c-4.55,0-10.33-2.76-16.36-7.94C46,77.81,39.09,69.17,33.36,59.28,27.74,49.57,23.71,39.46,22,30.81c-2.13-10.88-.53-19,4.29-21.81,5-2.9,13.47.08,22.12,7.76C54.56,22.2,61,30.48,66.54,40.07,72.46,50.28,76.42,59.91,78,67.92c2.18,11,.44,19.63-4.55,22.51A8.71,8.71,0,0,1,69,91.54ZM30.71,11.91a4.71,4.71,0,0,0-2.4.55C25.8,13.91,24,20,25.94,30c1.61,8.23,5.48,17.9,10.88,27.23h0C42.25,66.65,49,75.14,55.28,80.57c7.57,6.51,13.57,7.91,16.17,6.4s4.67-8,2.63-18.28c-1.5-7.57-5.3-16.78-11-26.62-5.34-9.22-11.49-17.15-17.31-22.32C39.46,14.15,34.07,11.91,30.71,11.91Z"/></g></svg>