<svg xmlns="http://www.w3.org/2000/svg" viewBox="0 0 100 100"><defs><style>.cls-1{stroke:#ccc;stroke-miterlimit:10;stroke-width:2px;}</style></defs><title>Rust</title><g id="Layer_16" data-name="Layer 16"><path class="cls-1" d="M96.93,48.86l-4-2.5c0-.39-.07-.78-.11-1.17L96.26,42a1.36,1.36,0,0,0,.41-1.28,1.38,1.38,0,0,0-.87-1L91.37,38c-.11-.38-.22-.76-.34-1.14L93.79,33a1.39,1.39,0,0,0-.9-2.18l-4.67-.76c-.18-.35-.37-.7-.56-1l2-4.31a1.39,1.39,0,0,0-1.31-2l-4.74.17c-.24-.31-.49-.61-.74-.91l1.09-4.61a1.39,1.39,0,0,0-1.67-1.67l-4.62,1.09c-.29-.25-.6-.5-.91-.75l.17-4.74a1.38,1.38,0,0,0-2-1.31l-4.3,2-1-.56-.76-4.66A1.35,1.35,0,0,0,68,5.72a1.38,1.38,0,0,0-1.33.16L62.81,8.64l-1.13-.35L60,3.86a1.39,1.39,0,0,0-2.31-.46L54.49,6.87l-1.17-.12-2.5-4a1.38,1.38,0,0,0-1.18-.66,1.36,1.36,0,0,0-1.17.66l-2.5,4-1.17.12L41.57,3.4a1.39,1.39,0,0,0-2.31.46L37.61,8.29l-1.13.35L32.64,5.88a1.38,1.38,0,0,0-2.17.9l-.76,4.66c-.36.18-.7.37-1.05.56l-4.3-2a1.38,1.38,0,0,0-2,1.31l.16,4.74-.9.75L17,15.75a1.39,1.39,0,0,0-1.67,1.67L16.45,22c-.25.3-.5.6-.74.91L11,22.77a1.39,1.39,0,0,0-1.31,2l2,4.31c-.19.34-.38.69-.56,1l-4.67.76A1.39,1.39,0,0,0,5.49,33l2.76,3.83c-.12.38-.23.76-.34,1.14L3.48,39.65a1.38,1.38,0,0,0-.87,1A1.37,1.37,0,0,0,3,42l3.46,3.23c0,.39-.08.78-.11,1.17l-4,2.5A1.38,1.38,0,0,0,1.69,50a1.34,1.34,0,0,0,.66,1.17l4,2.5c0,.39.07.78.11,1.17L3,58.11a1.37,1.37,0,0,0-.41,1.28,1.38,1.38,0,0,0,.87,1l4.43,1.65c.11.38.22.76.34,1.14L5.49,67.05a1.39,1.39,0,0,0,.91,2.17l4.67.76c.18.36.37.7.56,1l-2,4.3a1.39,1.39,0,0,0,1.31,2l4.73-.17c.24.31.49.61.75.91l-1.09,4.61a1.38,1.38,0,0,0,1.68,1.66l4.61-1.08c.3.26.6.51.91.75l-.17,4.74a1.38,1.38,0,0,0,.62,1.2,1.36,1.36,0,0,0,1.34.11l4.3-2,1.05.56.76,4.66a1.38,1.38,0,0,0,2.18.91l3.83-2.76,1.14.35,1.65,4.43a1.38,1.38,0,0,0,1,.87,1.37,1.37,0,0,0,1.28-.41l3.23-3.47c.39,0,.78.08,1.17.12l2.5,4a1.38,1.38,0,0,0,2.35,0l2.5-4c.39,0,.78-.07,1.17-.12l3.23,3.47a1.37,1.37,0,0,0,1.28.41,1.38,1.38,0,0,0,1-.87l1.65-4.43,1.14-.35,3.84,2.76a1.38,1.38,0,0,0,2.17-.91l.76-4.66,1.05-.56L75,90a1.38,1.38,0,0,0,2-1.31L76.75,84c.3-.25.61-.49.9-.75l4.62,1.08a1.38,1.38,0,0,0,1.67-1.66L82.86,78c.25-.3.5-.6.74-.91l4.74.17a1.39,1.39,0,0,0,1.31-2l-2-4.3c.19-.35.38-.7.56-1l4.67-.76a1.38,1.38,0,0,0,.89-2.17l-2.76-3.84c.12-.37.24-.75.35-1.14l4.43-1.65a1.38,1.38,0,0,0,.87-1,1.37,1.37,0,0,0-.41-1.28l-3.47-3.23.12-1.17,4-2.5A1.37,1.37,0,0,0,97.62,50,1.38,1.38,0,0,0,97,48.86ZM70,82.32a2.85,2.85,0,1,1,3.39-2.19A2.85,2.85,0,0,1,70,82.32Zm-1.36-9.26a2.58,2.58,0,0,0-3.08,2l-1.43,6.67a35.11,35.11,0,0,1-14.49,3.12,34.7,34.7,0,0,1-14.76-3.26l-1.43-6.67a2.6,2.6,0,0,0-3.08-2l-5.89,1.27a36.25,36.25,0,0,1-3.05-3.6h28.7c.32,0,.54,0,.54-.35V60.06c0-.29-.22-.35-.54-.35H41.72V53.28h9.07c.82,0,4.42.24,5.57,4.84.36,1.42,1.15,6,1.7,7.49.53,1.65,2.73,5,5.06,5H77.43a2.32,2.32,0,0,0,.51,0,35.92,35.92,0,0,1-3.24,3.82l-6-1.3Zm-39.7,9.12a2.85,2.85,0,1,1,2.19-3.39A2.85,2.85,0,0,1,28.92,82.18ZM18,38.09a2.85,2.85,0,1,1-3.76-1.45A2.85,2.85,0,0,1,18,38.09ZM14.67,46l6.14-2.73a2.61,2.61,0,0,0,1.32-3.43L20.86,37h5V59.35h-10a35.09,35.09,0,0,1-1.34-9.62Zm26.95-2.18v-6.6H53.44c.62,0,4.32.71,4.32,3.48,0,2.3-2.84,3.12-5.18,3.12h-11Zm43,5.94q0,1.32-.09,2.61H80.91c-.36,0-.5.23-.5.59v1.65c0,3.88-2.19,4.74-4.12,5s-3.86-.77-4.1-1.89c-1.09-6.08-2.88-7.37-5.72-9.63,3.53-2.23,7.19-5.54,7.19-10,0-4.77-3.27-7.78-5.5-9.26a15.63,15.63,0,0,0-7.53-2.47H23.41A35.28,35.28,0,0,1,43,15.23l4.4,4.61a2.59,2.59,0,0,0,3.67.08L56,15.23A35.1,35.1,0,0,1,80,32.37L76.66,40A2.6,2.6,0,0,0,78,43.39l6.47,2.88c.11,1.14.17,2.31.17,3.48ZM47.39,11.36a2.85,2.85,0,1,1-.09,4,2.85,2.85,0,0,1,.09-4ZM80.76,38.22A2.85,2.85,0,1,1,82.21,42,2.83,2.83,0,0,1,80.76,38.22Z"/></g></svg>