<svg xmlns="http://www.w3.org/2000/svg" viewBox="0 0 100 100"><defs><style>.cls-1{fill:#cd6799;stroke:#000;stroke-miterlimit:10;}</style></defs><title>SASS</title><g id="Layer_7" data-name="Layer 7"><path class="cls-1" d="M84.06,55.42a19.23,19.23,0,0,0-8.43,2A17.53,17.53,0,0,1,73.74,53a11.55,11.55,0,0,1-.17-3.67,32.35,32.35,0,0,1,1.1-4c0-.17-.2-1-2.07-1s-3.49.36-3.68.85A22.15,22.15,0,0,0,68.14,48c-.32,1.7-3.74,7.78-5.7,11A10.62,10.62,0,0,1,61,52.09a30.34,30.34,0,0,1,1.11-4c0-.17-.21-1-2.08-1s-3.49.35-3.67.85-.4,1.65-.79,2.77S50.62,62,49.43,64.64c-.61,1.34-1.14,2.41-1.51,3.15h0a.92.92,0,0,1-.07.13l-.51,1v0c-.26.46-.53.88-.67.88a5.66,5.66,0,0,1,0-2.89c.68-3.52,2.29-9,2.28-9.18s.3-1.06-1.06-1.55a1.68,1.68,0,0,0-1.92.32c-.12,0-.2.29-.2.29s1.48-6.16-2.83-6.16c-2.68,0-6.39,3-8.23,5.6l-6.26,3.42c-1,.56-2,1.12-3,1.65l-.2-.22c-5.21-5.57-14.84-9.5-14.43-17,.15-2.72,1.09-9.87,18.49-18.54C43.66,18.51,55.06,20.46,57,24.8c2.83,6.19-6.1,17.69-20.9,19.36-5.65.63-8.61-1.55-9.36-2.37s-.9-.9-1.19-.73c-.47.26-.17,1,0,1.47a8.76,8.76,0,0,0,5.34,4.2c2.72.88,9.34,1.37,17.35-1.72,9-3.47,16-13.12,13.92-21.2s-15.67-10.9-28.55-6.32c-7.65,2.72-15.95,7-21.92,12.58C4.62,36.71,3.5,42.47,4,44.89,5.61,53.46,17.43,59,22.16,63.18l-.64.35C19.15,64.71,10.14,69.42,7.89,74.4c-2.55,5.65.41,9.7,2.37,10.24,6.07,1.69,12.31-1.34,15.66-6.34s2.94-11.5,1.4-14.48a.61.61,0,0,0-.07-.1l1.85-1.09c1.21-.71,2.4-1.38,3.42-1.92a22.55,22.55,0,0,0-1.21,6.19c-.25,3.2,1.06,7.35,2.78,9a3,3,0,0,0,2.24.73c2,0,2.91-1.66,3.91-3.64,1.23-2.41,2.33-5.22,2.33-5.22s-1.37,7.59,2.37,7.59c1.36,0,2.74-1.77,3.35-2.67h0l.1-.17.22-.35v0c.55-1,1.77-3.11,3.59-6.7C54.55,60.79,56.81,55,56.81,55a31.17,31.17,0,0,0,.9,3.76,35.35,35.35,0,0,0,1.94,4.35c-.54.77-.88,1.2-.88,1.2h0c-.45.58-.92,1.21-1.45,1.82A53.78,53.78,0,0,0,53,71.63a1.49,1.49,0,0,0,.41,2,3.74,3.74,0,0,0,2.28.37,10.57,10.57,0,0,0,3.41-.78,11.39,11.39,0,0,0,3-1.55,6.58,6.58,0,0,0,2.82-5.8,11.75,11.75,0,0,0-1.07-4.1c.17-.24.32-.48.49-.71a77.55,77.55,0,0,0,5.11-8.81,28.59,28.59,0,0,0,.9,3.75,24.12,24.12,0,0,0,1.65,3.75,16.12,16.12,0,0,0-5,6.41c-1.07,3.1-.24,4.49,1.34,4.81a4.63,4.63,0,0,0,2.49-.51,11.16,11.16,0,0,0,3.14-1.61c1.82-1.35,3.58-3.22,3.47-5.75a10.64,10.64,0,0,0-.78-3.4,17.76,17.76,0,0,1,9-1c8.1.95,9.7,6,9.39,8.13a5.36,5.36,0,0,1-2.56,3.64c-.57.36-.75.48-.7.73s.34.36.81.29A6.32,6.32,0,0,0,97,65.83C97.25,60.83,92.48,55.37,84.06,55.42ZM21.6,76.48c-2.69,2.92-6.43,4-8,3.09s-1.06-5.32,2.24-8.42a43.34,43.34,0,0,1,6.31-4.71l1.67-1,.19-.1h0l.4-.26A11.63,11.63,0,0,1,21.6,76.48Zm19.56-13.3c-.93,2.28-2.89,8.11-4.08,7.79-1-.28-1.65-4.7-.2-9.07a20.62,20.62,0,0,1,3.18-5.83c1.46-1.64,3.08-2.18,3.47-1.52C44,55.42,41.74,61.75,41.16,63.18ZM57.31,70.9c-.4.2-.77.34-.94.24s.17-.34.17-.34,2-2.18,2.82-3.17c.46-.58,1-1.26,1.59-2v.22C61,68.43,58.43,70.18,57.31,70.9Zm12.45-2.84c-.29-.21-.24-.89.73-3a11.32,11.32,0,0,1,2.77-3.58A4.8,4.8,0,0,1,73.53,63,5.14,5.14,0,0,1,69.76,68.06Z"/></g></svg>