<svg xmlns="http://www.w3.org/2000/svg" viewBox="0 0 100 100"><defs><style>.cls-1{fill:#3178c6;}.cls-1,.cls-2{stroke:#000;stroke-miterlimit:10;stroke-width:2px;}.cls-2{fill:#fff;fill-rule:evenodd;}</style></defs><title>TypeScript</title><g id="Layer_9" data-name="Layer 9"><rect class="cls-1" x="5.25" y="5.2" width="89.75" height="89.75" rx="8.76"/><path class="cls-2" d="M60.82,76.54v8.77A19.06,19.06,0,0,0,65.9,87,33.88,33.88,0,0,0,72,87.5a28.22,28.22,0,0,0,6-.6A15,15,0,0,0,82.9,85a8.68,8.68,0,0,0,3.34-3.68,13.24,13.24,0,0,0,1.24-5.61,11.58,11.58,0,0,0-.72-4.2,8.31,8.31,0,0,0-2.1-3.16,13.94,13.94,0,0,0-3.16-2.45,40,40,0,0,0-4.2-2.11c-1.16-.47-2.11-.93-3.16-1.38A13.82,13.82,0,0,1,71.86,61a6.12,6.12,0,0,1-1.49-1.47,3.11,3.11,0,0,1-.53-1.75,2.91,2.91,0,0,1,.48-1.63,4,4,0,0,1,1.31-1.25,7.1,7.1,0,0,1,2.11-.81,12.33,12.33,0,0,1,2.8-.28,16.23,16.23,0,0,1,2.28.17,18.1,18.1,0,0,1,2.45.51,20,20,0,0,1,2.46.86,11.2,11.2,0,0,1,2.1,1.21V48.33a21.1,21.1,0,0,0-4.38-1.14A34.56,34.56,0,0,0,76,46.82a26.23,26.23,0,0,0-6,.67,13.77,13.77,0,0,0-4.91,2.1,10,10,0,0,0-3.33,3.68,10.37,10.37,0,0,0-1.23,5.26,9.85,9.85,0,0,0,2.28,6.66c1.51,1.93,3.85,3.33,6.83,4.73,1.21.49,2.28,1,3.34,1.46a14.56,14.56,0,0,1,2.62,1.47,6.44,6.44,0,0,1,1.76,1.67,3.41,3.41,0,0,1,.66,2.1,3.23,3.23,0,0,1-.4,1.58,3.47,3.47,0,0,1-1.24,1.26,7.14,7.14,0,0,1-2.11.84,12.91,12.91,0,0,1-3,.3,15.83,15.83,0,0,1-5.61-1,16.84,16.84,0,0,1-5.26-3ZM46.09,55H57.31V47.79H25.93V55H37.15V87.06h8.94Z"/></g></svg>