<svg xmlns="http://www.w3.org/2000/svg" viewBox="0 0 100 100"><defs><style>.cls-1{fill:#4c4c4c;}.cls-1,.cls-2,.cls-3{stroke:#000;stroke-miterlimit:10;stroke-width:2px;}.cls-3{fill:gray;}</style></defs><title>Unity</title><g id="Layer_20" data-name="Layer 20"><path class="cls-1" d="M88,67.36V27.46L53.46,7.53v15.3L67,30.68c.53.35.53,1.07,0,1.26L50.94,41.21a1.27,1.27,0,0,1-1.42,0l-16-9.27a.7.7,0,0,1-.35-.91.63.63,0,0,1,.35-.35L47,22.83V7.53L12.31,27.46v39.9l13.18-7.67V44a.83.83,0,0,1,1-.73.15.15,0,0,1,.12,0l16,9.27a1.37,1.37,0,0,1,.73,1.26V72.34a.83.83,0,0,1-1,.73.18.18,0,0,1-.12,0L28.71,65.21,15.52,72.88,50.06,93,84.63,73.07,71.44,65.4,57.91,73.26c-.53.34-1.07,0-1.07-.73V54a1.51,1.51,0,0,1,.72-1.26l16-9.28c.53-.34,1.07,0,1.07.73V59.88Z"/><path class="cls-2" d="M50.06,93,84.63,73.07,71.44,65.4,57.91,73.26c-.53.34-1.07,0-1.07-.73V54a1.51,1.51,0,0,1,.72-1.26l16-9.28c.53-.34,1.07,0,1.07.73V59.88l13.18,7.67V27.46L50.06,49.38Z"/><path class="cls-3" d="M53.46,7.53v15.3L67,30.68c.53.35.53,1.07,0,1.26L50.94,41.21a1.27,1.27,0,0,1-1.42,0l-16-9.27a.7.7,0,0,1-.35-.91.63.63,0,0,1,.35-.35L47,22.83V7.53L12.31,27.46,50.06,49.38,87.84,27.46Z"/><path class="cls-1" d="M42.39,73.26,28.86,65.4,15.68,73.07,50.25,93V49.38L12.31,27.46v39.9l13.18-7.67V44a.83.83,0,0,1,1-.73.15.15,0,0,1,.12,0l16,9.27a1.37,1.37,0,0,1,.73,1.26V72.34C43.47,73.07,42.93,73.6,42.39,73.26Z"/></g></svg>