<svg xmlns="http://www.w3.org/2000/svg" viewBox="0 0 100 100"><defs><style>.cls-1{fill:#2489ca;}.cls-1,.cls-2,.cls-3,.cls-4{stroke:#000;stroke-miterlimit:10;stroke-width:2px;}.cls-2{fill:#1070b3;}.cls-3{fill:#0877b9;}.cls-4{fill:#3c99d4;}</style></defs><title>Visual Studio Code</title><g id="Layer_19" data-name="Layer 19"><path class="cls-1" d="M3.48,35.8s-2.3-1.66.46-3.87l6.43-5.75a2.73,2.73,0,0,1,3.78-.25L73.49,70.85V92.4s0,3.38-4.37,3Z"/><path class="cls-2" d="M18.77,49.69,3.48,63.59s-1.58,1.17,0,3.26l7.1,6.46s1.68,1.81,4.17-.25L31,60.76Z"/><path class="cls-3" d="M45.62,49.8,73.67,28.39,73.49,7s-1.2-4.68-5.2-2.24L31,38.69Z"/><path class="cls-4" d="M69.12,95.43a3.84,3.84,0,0,0,3.6,1.12L94.58,85.78c2.79-1.9,2.4-4.27,2.4-4.27V17.19c0-2.82-2.89-3.8-2.89-3.8l-19-9.13c-4.14-2.56-6.85.46-6.85.46S71.78,2.21,73.49,7V92a3.86,3.86,0,0,1-.38,1.68c-.5,1-1.58,1.94-4.18,1.55Z"/></g></svg>