<svg xmlns="http://www.w3.org/2000/svg" xmlns:xlink="http://www.w3.org/1999/xlink" viewBox="0 0 100 100"><defs><style>.cls-1{fill:#52218a;}.cls-1,.cls-2,.cls-3,.cls-4,.cls-5{stroke:#000;stroke-miterlimit:10;stroke-width:2px;}.cls-2{fill:#6c33af;}.cls-3{fill:#854cc7;}.cls-4{fill:#b179f1;}.cls-5{fill-opacity:0.25;fill:url(#linear-gradient);}</style><linearGradient id="linear-gradient" x1="-297.64" y1="100.97" x2="-297.64" y2="100.66" gradientTransform="matrix(256, 0, 0, -254.67, 76245, 25723.05)" gradientUnits="userSpaceOnUse"><stop offset="0" stop-color="#fff"/><stop offset="1" stop-color="#fff" stop-opacity="0"/></linearGradient></defs><title>Visual Studio</title><g id="Layer_18" data-name="Layer 18"><path class="cls-1" d="M21.56,71a3.32,3.32,0,0,1-3.45.54L12.05,69A3.33,3.33,0,0,1,10,65.94V30.39a3.32,3.32,0,0,1,2.05-3.05l6.06-2.5a3.32,3.32,0,0,1,3.45.54l1.36,1.12A1.85,1.85,0,0,0,20,28V68.34A1.84,1.84,0,0,0,21,70a1.87,1.87,0,0,0,1.92-.14Z"/><path class="cls-2" d="M12.05,69A3.33,3.33,0,0,1,10,65.94v-.27a1.92,1.92,0,0,0,1.23,1.77,1.9,1.9,0,0,0,2.1-.48L65,9.84a5,5,0,0,1,5.68-1L87.17,16.8A5,5,0,0,1,90,21.31v.19a3.16,3.16,0,0,0-5.16-2.44L22.92,69.84,21.56,71a3.32,3.32,0,0,1-3.45.54Z"/><path class="cls-3" d="M12.05,27.34A3.32,3.32,0,0,0,10,30.39v.28a1.94,1.94,0,0,1,1.23-1.78,1.92,1.92,0,0,1,2.1.49L65,86.5a5,5,0,0,0,5.68,1l16.49-7.93A5,5,0,0,0,90,75v-.19a3.16,3.16,0,0,1-5.16,2.44L22.92,26.5l-1.36-1.16a3.31,3.31,0,0,0-3.45-.5Z"/><path class="cls-4" d="M70.68,87.47a5,5,0,0,1-5.68-1,2.93,2.93,0,0,0,5-2.07V11.93a2.93,2.93,0,0,0-5-2.09,5,5,0,0,1,5.68-1l16.49,7.92A5,5,0,0,1,90,21.3V75a5,5,0,0,1-2.83,4.5Z"/><path class="cls-5" d="M67.41,87.84a5,5,0,0,0,3.27-.37l16.49-7.93A5,5,0,0,0,90,75V21.3a5,5,0,0,0-2.83-4.51L70.68,8.87a5,5,0,0,0-5.68,1L38.43,39.22,22.92,26.5l-1.36-1.16a3.35,3.35,0,0,0-3-.7,3.26,3.26,0,0,0-.44.15l-6.06,2.55A3.31,3.31,0,0,0,10,30.14V66.19A3.31,3.31,0,0,0,12.05,69l6.06,2.5a1.76,1.76,0,0,0,.44.15,3.32,3.32,0,0,0,3-.69l1.36-1.12L38.43,57.12,65,86.5a5,5,0,0,0,2.41,1.34ZM70,31.24,49.34,48.17,70,65.1ZM20,36.73,30.34,48.17,20,59.61Z"/></g></svg>